<svg width="18" height="20" viewBox="0 0 18 20" fill="none" xmlns="http://www.w3.org/2000/svg">
<path d="M5.625 8.62471C5.625 9.42036 5.94107 10.1834 6.50368 10.746C7.06629 11.3086 7.82935 11.6247 8.625 11.6247C9.42065 11.6247 10.1837 11.3086 10.7463 10.746C11.3089 10.1834 11.625 9.42036 11.625 8.62471C11.625 7.82906 11.3089 7.066 10.7463 6.50339C10.1837 5.94078 9.42065 5.62471 8.625 5.62471C7.82935 5.62471 7.06629 5.94078 6.50368 6.50339C5.94107 7.066 5.625 7.82906 5.625 8.62471Z" stroke="#4D4D4D" stroke-width="1.25" stroke-linecap="round" stroke-linejoin="round"/>
<path d="M14.282 14.2817L10.039 18.5247C9.66399 18.8993 9.15559 19.1098 8.6255 19.1098C8.09542 19.1098 7.58702 18.8993 7.212 18.5247L2.968 14.2817C1.84922 13.1629 1.08734 11.7374 0.778691 10.1856C0.470043 8.63373 0.628494 7.02522 1.23401 5.56344C1.83952 4.10165 2.8649 2.85225 4.18048 1.97321C5.49607 1.09418 7.04277 0.625 8.625 0.625C10.2072 0.625 11.7539 1.09418 13.0695 1.97321C14.3851 2.85225 15.4105 4.10165 16.016 5.56344C16.6215 7.02522 16.78 8.63373 16.4713 10.1856C16.1627 11.7374 15.4008 13.1629 14.282 14.2817Z" stroke="#4D4D4D" stroke-width="1.25" stroke-linecap="round" stroke-linejoin="round"/>
</svg>
